<svg xmlns="http://www.w3.org/2000/svg" width="450" height="450" viewBox="0 0 450 450">
  <rect width="450" height="450" fill="#120a24"/>
  <circle cx="125.0" cy="45.0" r="4.0" fill="#b07adf"/>
  <circle cx="155.0" cy="45.0" r="4.0" fill="#b07adf"/>
  <circle cx="175.0" cy="45.0" r="4.0" fill="#b07adf"/>
  <circle cx="185.0" cy="45.0" r="4.0" fill="#b07adf"/>
  <circle cx="195.0" cy="45.0" r="4.0" fill="#b07adf"/>
  <circle cx="235.0" cy="45.0" r="4.0" fill="#b07adf"/>
  <circle cx="245.0" cy="45.0" r="4.0" fill="#b07adf"/>
  <circle cx="255.0" cy="45.0" r="4.0" fill="#b07adf"/>
  <circle cx="265.0" cy="45.0" r="4.0" fill="#b07adf"/>
  <circle cx="295.0" cy="45.0" r="4.0" fill="#b07adf"/>
  <circle cx="325.0" cy="45.0" r="4.0" fill="#b07adf"/>
  <circle cx="125.0" cy="55.0" r="4.0" fill="#b07adf"/>
  <circle cx="135.0" cy="55.0" r="4.0" fill="#b07adf"/>
  <circle cx="155.0" cy="55.0" r="4.0" fill="#b07adf"/>
  <circle cx="175.0" cy="55.0" r="4.0" fill="#b07adf"/>
  <circle cx="185.0" cy="55.0" r="4.0" fill="#b07adf"/>
  <circle cx="215.0" cy="55.0" r="4.0" fill="#b07adf"/>
  <circle cx="235.0" cy="55.0" r="4.0" fill="#b07adf"/>
  <circle cx="265.0" cy="55.0" r="4.0" fill="#b07adf"/>
  <circle cx="275.0" cy="55.0" r="4.0" fill="#b07adf"/>
  <circle cx="315.0" cy="55.0" r="4.0" fill="#b07adf"/>
  <circle cx="125.0" cy="65.0" r="4.0" fill="#b07adf"/>
  <circle cx="165.0" cy="65.0" r="4.0" fill="#b07adf"/>
  <circle cx="195.0" cy="65.0" r="4.0" fill="#b07adf"/>
  <circle cx="215.0" cy="65.0" r="4.0" fill="#b07adf"/>
  <circle cx="225.0" cy="65.0" r="4.0" fill="#b07adf"/>
  <circle cx="235.0" cy="65.0" r="4.0" fill="#b07adf"/>
  <circle cx="255.0" cy="65.0" r="4.0" fill="#b07adf"/>
  <circle cx="265.0" cy="65.0" r="4.0" fill="#b07adf"/>
  <circle cx="305.0" cy="65.0" r="4.0" fill="#b07adf"/>
  <circle cx="315.0" cy="65.0" r="4.0" fill="#b07adf"/>
  <circle cx="325.0" cy="65.0" r="4.0" fill="#b07adf"/>
  <circle cx="155.0" cy="75.0" r="4.0" fill="#b07adf"/>
  <circle cx="175.0" cy="75.0" r="4.0" fill="#b07adf"/>
  <circle cx="185.0" cy="75.0" r="4.0" fill="#b07adf"/>
  <circle cx="205.0" cy="75.0" r="4.0" fill="#b07adf"/>
  <circle cx="295.0" cy="75.0" r="4.0" fill="#b07adf"/>
  <circle cx="305.0" cy="75.0" r="4.0" fill="#b07adf"/>
  <circle cx="135.0" cy="85.0" r="4.0" fill="#b07adf"/>
  <circle cx="145.0" cy="85.0" r="4.0" fill="#b07adf"/>
  <circle cx="175.0" cy="85.0" r="4.0" fill="#b07adf"/>
  <circle cx="205.0" cy="85.0" r="4.0" fill="#b07adf"/>
  <circle cx="235.0" cy="85.0" r="4.0" fill="#b07adf"/>
  <circle cx="245.0" cy="85.0" r="4.0" fill="#b07adf"/>
  <circle cx="255.0" cy="85.0" r="4.0" fill="#b07adf"/>
  <circle cx="285.0" cy="85.0" r="4.0" fill="#b07adf"/>
  <circle cx="125.0" cy="95.0" r="4.0" fill="#b07adf"/>
  <circle cx="135.0" cy="95.0" r="4.0" fill="#b07adf"/>
  <circle cx="145.0" cy="95.0" r="4.0" fill="#b07adf"/>
  <circle cx="165.0" cy="95.0" r="4.0" fill="#b07adf"/>
  <circle cx="235.0" cy="95.0" r="4.0" fill="#b07adf"/>
  <circle cx="265.0" cy="95.0" r="4.0" fill="#b07adf"/>
  <circle cx="315.0" cy="95.0" r="4.0" fill="#b07adf"/>
  <circle cx="325.0" cy="95.0" r="4.0" fill="#b07adf"/>
  <circle cx="125.0" cy="105.0" r="4.0" fill="#b07adf"/>
  <circle cx="145.0" cy="105.0" r="4.0" fill="#b07adf"/>
  <circle cx="165.0" cy="105.0" r="4.0" fill="#b07adf"/>
  <circle cx="185.0" cy="105.0" r="4.0" fill="#b07adf"/>
  <circle cx="205.0" cy="105.0" r="4.0" fill="#b07adf"/>
  <circle cx="225.0" cy="105.0" r="4.0" fill="#b07adf"/>
  <circle cx="245.0" cy="105.0" r="4.0" fill="#b07adf"/>
  <circle cx="265.0" cy="105.0" r="4.0" fill="#b07adf"/>
  <circle cx="285.0" cy="105.0" r="4.0" fill="#b07adf"/>
  <circle cx="305.0" cy="105.0" r="4.0" fill="#b07adf"/>
  <circle cx="325.0" cy="105.0" r="4.0" fill="#b07adf"/>
  <circle cx="125.0" cy="115.0" r="4.0" fill="#b07adf"/>
  <circle cx="145.0" cy="115.0" r="4.0" fill="#b07adf"/>
  <circle cx="155.0" cy="115.0" r="4.0" fill="#b07adf"/>
  <circle cx="175.0" cy="115.0" r="4.0" fill="#b07adf"/>
  <circle cx="195.0" cy="115.0" r="4.0" fill="#b07adf"/>
  <circle cx="215.0" cy="115.0" r="4.0" fill="#b07adf"/>
  <circle cx="245.0" cy="115.0" r="4.0" fill="#b07adf"/>
  <circle cx="275.0" cy="115.0" r="4.0" fill="#b07adf"/>
  <circle cx="305.0" cy="115.0" r="4.0" fill="#b07adf"/>
  <circle cx="325.0" cy="115.0" r="4.0" fill="#b07adf"/>
  <circle cx="65.0" cy="125.0" r="4.0" fill="#b07adf"/>
  <circle cx="75.0" cy="125.0" r="4.0" fill="#b07adf"/>
  <circle cx="85.0" cy="125.0" r="4.0" fill="#b07adf"/>
  <circle cx="105.0" cy="125.0" r="4.0" fill="#b07adf"/>
  <circle cx="125.0" cy="125.0" r="4.0" fill="#b07adf"/>
  <circle cx="155.0" cy="125.0" r="4.0" fill="#b07adf"/>
  <circle cx="165.0" cy="125.0" r="4.0" fill="#b07adf"/>
  <circle cx="215.0" cy="125.0" r="4.0" fill="#b07adf"/>
  <circle cx="235.0" cy="125.0" r="4.0" fill="#b07adf"/>
  <circle cx="245.0" cy="125.0" r="4.0" fill="#b07adf"/>
  <circle cx="255.0" cy="125.0" r="4.0" fill="#b07adf"/>
  <circle cx="275.0" cy="125.0" r="4.0" fill="#b07adf"/>
  <circle cx="285.0" cy="125.0" r="4.0" fill="#b07adf"/>
  <circle cx="335.0" cy="125.0" r="4.0" fill="#b07adf"/>
  <circle cx="345.0" cy="125.0" r="4.0" fill="#b07adf"/>
  <circle cx="355.0" cy="125.0" r="4.0" fill="#b07adf"/>
  <circle cx="385.0" cy="125.0" r="4.0" fill="#b07adf"/>
  <circle cx="395.0" cy="125.0" r="4.0" fill="#b07adf"/>
  <circle cx="405.0" cy="125.0" r="4.0" fill="#b07adf"/>
  <circle cx="45.0" cy="135.0" r="4.0" fill="#b07adf"/>
  <circle cx="55.0" cy="135.0" r="4.0" fill="#b07adf"/>
  <circle cx="75.0" cy="135.0" r="4.0" fill="#b07adf"/>
  <circle cx="85.0" cy="135.0" r="4.0" fill="#b07adf"/>
  <circle cx="95.0" cy="135.0" r="4.0" fill="#b07adf"/>
  <circle cx="115.0" cy="135.0" r="4.0" fill="#b07adf"/>
  <circle cx="135.0" cy="135.0" r="4.0" fill="#b07adf"/>
  <circle cx="145.0" cy="135.0" r="4.0" fill="#b07adf"/>
  <circle cx="165.0" cy="135.0" r="4.0" fill="#b07adf"/>
  <circle cx="175.0" cy="135.0" r="4.0" fill="#b07adf"/>
  <circle cx="205.0" cy="135.0" r="4.0" fill="#b07adf"/>
  <circle cx="215.0" cy="135.0" r="4.0" fill="#b07adf"/>
  <circle cx="235.0" cy="135.0" r="4.0" fill="#b07adf"/>
  <circle cx="255.0" cy="135.0" r="4.0" fill="#b07adf"/>
  <circle cx="275.0" cy="135.0" r="4.0" fill="#b07adf"/>
  <circle cx="295.0" cy="135.0" r="4.0" fill="#b07adf"/>
  <circle cx="305.0" cy="135.0" r="4.0" fill="#b07adf"/>
  <circle cx="315.0" cy="135.0" r="4.0" fill="#b07adf"/>
  <circle cx="325.0" cy="135.0" r="4.0" fill="#b07adf"/>
  <circle cx="345.0" cy="135.0" r="4.0" fill="#b07adf"/>
  <circle cx="45.0" cy="145.0" r="4.0" fill="#b07adf"/>
  <circle cx="55.0" cy="145.0" r="4.0" fill="#b07adf"/>
  <circle cx="65.0" cy="145.0" r="4.0" fill="#b07adf"/>
  <circle cx="85.0" cy="145.0" r="4.0" fill="#b07adf"/>
  <circle cx="95.0" cy="145.0" r="4.0" fill="#b07adf"/>
  <circle cx="105.0" cy="145.0" r="4.0" fill="#b07adf"/>
  <circle cx="125.0" cy="145.0" r="4.0" fill="#b07adf"/>
  <circle cx="135.0" cy="145.0" r="4.0" fill="#b07adf"/>
  <circle cx="145.0" cy="145.0" r="4.0" fill="#b07adf"/>
  <circle cx="175.0" cy="145.0" r="4.0" fill="#b07adf"/>
  <circle cx="195.0" cy="145.0" r="4.0" fill="#b07adf"/>
  <circle cx="205.0" cy="145.0" r="4.0" fill="#b07adf"/>
  <circle cx="255.0" cy="145.0" r="4.0" fill="#b07adf"/>
  <circle cx="275.0" cy="145.0" r="4.0" fill="#b07adf"/>
  <circle cx="295.0" cy="145.0" r="4.0" fill="#b07adf"/>
  <circle cx="305.0" cy="145.0" r="4.0" fill="#b07adf"/>
  <circle cx="345.0" cy="145.0" r="4.0" fill="#b07adf"/>
  <circle cx="385.0" cy="145.0" r="4.0" fill="#b07adf"/>
  <circle cx="395.0" cy="145.0" r="4.0" fill="#b07adf"/>
  <circle cx="405.0" cy="145.0" r="4.0" fill="#b07adf"/>
  <circle cx="45.0" cy="155.0" r="4.0" fill="#b07adf"/>
  <circle cx="65.0" cy="155.0" r="4.0" fill="#b07adf"/>
  <circle cx="85.0" cy="155.0" r="4.0" fill="#b07adf"/>
  <circle cx="95.0" cy="155.0" r="4.0" fill="#b07adf"/>
  <circle cx="115.0" cy="155.0" r="4.0" fill="#b07adf"/>
  <circle cx="135.0" cy="155.0" r="4.0" fill="#b07adf"/>
  <circle cx="145.0" cy="155.0" r="4.0" fill="#b07adf"/>
  <circle cx="155.0" cy="155.0" r="4.0" fill="#b07adf"/>
  <circle cx="165.0" cy="155.0" r="4.0" fill="#b07adf"/>
  <circle cx="185.0" cy="155.0" r="4.0" fill="#b07adf"/>
  <circle cx="205.0" cy="155.0" r="4.0" fill="#b07adf"/>
  <circle cx="245.0" cy="155.0" r="4.0" fill="#b07adf"/>
  <circle cx="265.0" cy="155.0" r="4.0" fill="#b07adf"/>
  <circle cx="275.0" cy="155.0" r="4.0" fill="#b07adf"/>
  <circle cx="305.0" cy="155.0" r="4.0" fill="#b07adf"/>
  <circle cx="325.0" cy="155.0" r="4.0" fill="#b07adf"/>
  <circle cx="345.0" cy="155.0" r="4.0" fill="#b07adf"/>
  <circle cx="45.0" cy="165.0" r="4.0" fill="#b07adf"/>
  <circle cx="55.0" cy="165.0" r="4.0" fill="#b07adf"/>
  <circle cx="65.0" cy="165.0" r="4.0" fill="#b07adf"/>
  <circle cx="75.0" cy="165.0" r="4.0" fill="#b07adf"/>
  <circle cx="105.0" cy="165.0" r="4.0" fill="#b07adf"/>
  <circle cx="115.0" cy="165.0" r="4.0" fill="#b07adf"/>
  <circle cx="125.0" cy="165.0" r="4.0" fill="#b07adf"/>
  <circle cx="135.0" cy="165.0" r="4.0" fill="#b07adf"/>
  <circle cx="175.0" cy="165.0" r="4.0" fill="#b07adf"/>
  <circle cx="185.0" cy="165.0" r="4.0" fill="#b07adf"/>
  <circle cx="215.0" cy="165.0" r="4.0" fill="#b07adf"/>
  <circle cx="235.0" cy="165.0" r="4.0" fill="#b07adf"/>
  <circle cx="265.0" cy="165.0" r="4.0" fill="#b07adf"/>
  <circle cx="275.0" cy="165.0" r="4.0" fill="#b07adf"/>
  <circle cx="285.0" cy="165.0" r="4.0" fill="#b07adf"/>
  <circle cx="295.0" cy="165.0" r="4.0" fill="#b07adf"/>
  <circle cx="305.0" cy="165.0" r="4.0" fill="#b07adf"/>
  <circle cx="335.0" cy="165.0" r="4.0" fill="#b07adf"/>
  <circle cx="345.0" cy="165.0" r="4.0" fill="#b07adf"/>
  <circle cx="365.0" cy="165.0" r="4.0" fill="#b07adf"/>
  <circle cx="375.0" cy="165.0" r="4.0" fill="#b07adf"/>
  <circle cx="385.0" cy="165.0" r="4.0" fill="#b07adf"/>
  <circle cx="395.0" cy="165.0" r="4.0" fill="#b07adf"/>
  <circle cx="65.0" cy="175.0" r="4.0" fill="#b07adf"/>
  <circle cx="75.0" cy="175.0" r="4.0" fill="#b07adf"/>
  <circle cx="85.0" cy="175.0" r="4.0" fill="#b07adf"/>
  <circle cx="95.0" cy="175.0" r="4.0" fill="#b07adf"/>
  <circle cx="115.0" cy="175.0" r="4.0" fill="#b07adf"/>
  <circle cx="125.0" cy="175.0" r="4.0" fill="#b07adf"/>
  <circle cx="145.0" cy="175.0" r="4.0" fill="#b07adf"/>
  <circle cx="155.0" cy="175.0" r="4.0" fill="#b07adf"/>
  <circle cx="165.0" cy="175.0" r="4.0" fill="#b07adf"/>
  <circle cx="175.0" cy="175.0" r="4.0" fill="#b07adf"/>
  <circle cx="195.0" cy="175.0" r="4.0" fill="#b07adf"/>
  <circle cx="235.0" cy="175.0" r="4.0" fill="#b07adf"/>
  <circle cx="245.0" cy="175.0" r="4.0" fill="#b07adf"/>
  <circle cx="265.0" cy="175.0" r="4.0" fill="#b07adf"/>
  <circle cx="275.0" cy="175.0" r="4.0" fill="#b07adf"/>
  <circle cx="325.0" cy="175.0" r="4.0" fill="#b07adf"/>
  <circle cx="335.0" cy="175.0" r="4.0" fill="#b07adf"/>
  <circle cx="375.0" cy="175.0" r="4.0" fill="#b07adf"/>
  <circle cx="385.0" cy="175.0" r="4.0" fill="#b07adf"/>
  <circle cx="45.0" cy="185.0" r="4.0" fill="#b07adf"/>
  <circle cx="65.0" cy="185.0" r="4.0" fill="#b07adf"/>
  <circle cx="75.0" cy="185.0" r="4.0" fill="#b07adf"/>
  <circle cx="105.0" cy="185.0" r="4.0" fill="#b07adf"/>
  <circle cx="135.0" cy="185.0" r="4.0" fill="#b07adf"/>
  <circle cx="145.0" cy="185.0" r="4.0" fill="#b07adf"/>
  <circle cx="175.0" cy="185.0" r="4.0" fill="#b07adf"/>
  <circle cx="185.0" cy="185.0" r="4.0" fill="#b07adf"/>
  <circle cx="195.0" cy="185.0" r="4.0" fill="#b07adf"/>
  <circle cx="215.0" cy="185.0" r="4.0" fill="#b07adf"/>
  <circle cx="225.0" cy="185.0" r="4.0" fill="#b07adf"/>
  <circle cx="235.0" cy="185.0" r="4.0" fill="#b07adf"/>
  <circle cx="255.0" cy="185.0" r="4.0" fill="#b07adf"/>
  <circle cx="265.0" cy="185.0" r="4.0" fill="#b07adf"/>
  <circle cx="275.0" cy="185.0" r="4.0" fill="#b07adf"/>
  <circle cx="285.0" cy="185.0" r="4.0" fill="#b07adf"/>
  <circle cx="315.0" cy="185.0" r="4.0" fill="#b07adf"/>
  <circle cx="325.0" cy="185.0" r="4.0" fill="#b07adf"/>
  <circle cx="355.0" cy="185.0" r="4.0" fill="#b07adf"/>
  <circle cx="375.0" cy="185.0" r="4.0" fill="#b07adf"/>
  <circle cx="395.0" cy="185.0" r="4.0" fill="#b07adf"/>
  <circle cx="405.0" cy="185.0" r="4.0" fill="#b07adf"/>
  <circle cx="65.0" cy="195.0" r="4.0" fill="#b07adf"/>
  <circle cx="85.0" cy="195.0" r="4.0" fill="#b07adf"/>
  <circle cx="115.0" cy="195.0" r="4.0" fill="#b07adf"/>
  <circle cx="135.0" cy="195.0" r="4.0" fill="#b07adf"/>
  <circle cx="155.0" cy="195.0" r="4.0" fill="#b07adf"/>
  <circle cx="165.0" cy="195.0" r="4.0" fill="#b07adf"/>
  <circle cx="175.0" cy="195.0" r="4.0" fill="#b07adf"/>
  <circle cx="215.0" cy="195.0" r="4.0" fill="#b07adf"/>
  <circle cx="225.0" cy="195.0" r="4.0" fill="#b07adf"/>
  <circle cx="235.0" cy="195.0" r="4.0" fill="#b07adf"/>
  <circle cx="255.0" cy="195.0" r="4.0" fill="#b07adf"/>
  <circle cx="265.0" cy="195.0" r="4.0" fill="#b07adf"/>
  <circle cx="275.0" cy="195.0" r="4.0" fill="#b07adf"/>
  <circle cx="305.0" cy="195.0" r="4.0" fill="#b07adf"/>
  <circle cx="325.0" cy="195.0" r="4.0" fill="#b07adf"/>
  <circle cx="335.0" cy="195.0" r="4.0" fill="#b07adf"/>
  <circle cx="345.0" cy="195.0" r="4.0" fill="#b07adf"/>
  <circle cx="355.0" cy="195.0" r="4.0" fill="#b07adf"/>
  <circle cx="365.0" cy="195.0" r="4.0" fill="#b07adf"/>
  <circle cx="395.0" cy="195.0" r="4.0" fill="#b07adf"/>
  <circle cx="45.0" cy="205.0" r="4.0" fill="#b07adf"/>
  <circle cx="65.0" cy="205.0" r="4.0" fill="#b07adf"/>
  <circle cx="75.0" cy="205.0" r="4.0" fill="#b07adf"/>
  <circle cx="105.0" cy="205.0" r="4.0" fill="#b07adf"/>
  <circle cx="145.0" cy="205.0" r="4.0" fill="#b07adf"/>
  <circle cx="185.0" cy="205.0" r="4.0" fill="#b07adf"/>
  <circle cx="215.0" cy="205.0" r="4.0" fill="#b07adf"/>
  <circle cx="225.0" cy="205.0" r="4.0" fill="#b07adf"/>
  <circle cx="235.0" cy="205.0" r="4.0" fill="#b07adf"/>
  <circle cx="245.0" cy="205.0" r="4.0" fill="#b07adf"/>
  <circle cx="255.0" cy="205.0" r="4.0" fill="#b07adf"/>
  <circle cx="265.0" cy="205.0" r="4.0" fill="#b07adf"/>
  <circle cx="275.0" cy="205.0" r="4.0" fill="#b07adf"/>
  <circle cx="295.0" cy="205.0" r="4.0" fill="#b07adf"/>
  <circle cx="305.0" cy="205.0" r="4.0" fill="#b07adf"/>
  <circle cx="335.0" cy="205.0" r="4.0" fill="#b07adf"/>
  <circle cx="345.0" cy="205.0" r="4.0" fill="#b07adf"/>
  <circle cx="365.0" cy="205.0" r="4.0" fill="#b07adf"/>
  <circle cx="385.0" cy="205.0" r="4.0" fill="#b07adf"/>
  <circle cx="405.0" cy="205.0" r="4.0" fill="#b07adf"/>
  <circle cx="45.0" cy="215.0" r="4.0" fill="#b07adf"/>
  <circle cx="55.0" cy="215.0" r="4.0" fill="#b07adf"/>
  <circle cx="65.0" cy="215.0" r="4.0" fill="#b07adf"/>
  <circle cx="75.0" cy="215.0" r="4.0" fill="#b07adf"/>
  <circle cx="95.0" cy="215.0" r="4.0" fill="#b07adf"/>
  <circle cx="115.0" cy="215.0" r="4.0" fill="#b07adf"/>
  <circle cx="135.0" cy="215.0" r="4.0" fill="#b07adf"/>
  <circle cx="145.0" cy="215.0" r="4.0" fill="#b07adf"/>
  <circle cx="185.0" cy="215.0" r="4.0" fill="#b07adf"/>
  <circle cx="195.0" cy="215.0" r="4.0" fill="#b07adf"/>
  <circle cx="205.0" cy="215.0" r="4.0" fill="#b07adf"/>
  <circle cx="215.0" cy="215.0" r="4.0" fill="#b07adf"/>
  <circle cx="225.0" cy="215.0" r="4.0" fill="#b07adf"/>
  <circle cx="255.0" cy="215.0" r="4.0" fill="#b07adf"/>
  <circle cx="275.0" cy="215.0" r="4.0" fill="#b07adf"/>
  <circle cx="285.0" cy="215.0" r="4.0" fill="#b07adf"/>
  <circle cx="325.0" cy="215.0" r="4.0" fill="#b07adf"/>
  <circle cx="355.0" cy="215.0" r="4.0" fill="#b07adf"/>
  <circle cx="375.0" cy="215.0" r="4.0" fill="#b07adf"/>
  <circle cx="45.0" cy="225.0" r="4.0" fill="#b07adf"/>
  <circle cx="95.0" cy="225.0" r="4.0" fill="#b07adf"/>
  <circle cx="105.0" cy="225.0" r="4.0" fill="#b07adf"/>
  <circle cx="135.0" cy="225.0" r="4.0" fill="#b07adf"/>
  <circle cx="145.0" cy="225.0" r="4.0" fill="#b07adf"/>
  <circle cx="155.0" cy="225.0" r="4.0" fill="#b07adf"/>
  <circle cx="165.0" cy="225.0" r="4.0" fill="#b07adf"/>
  <circle cx="185.0" cy="225.0" r="4.0" fill="#b07adf"/>
  <circle cx="195.0" cy="225.0" r="4.0" fill="#b07adf"/>
  <circle cx="215.0" cy="225.0" r="4.0" fill="#b07adf"/>
  <circle cx="225.0" cy="225.0" r="4.0" fill="#b07adf"/>
  <circle cx="235.0" cy="225.0" r="4.0" fill="#b07adf"/>
  <circle cx="255.0" cy="225.0" r="4.0" fill="#b07adf"/>
  <circle cx="275.0" cy="225.0" r="4.0" fill="#b07adf"/>
  <circle cx="285.0" cy="225.0" r="4.0" fill="#b07adf"/>
  <circle cx="305.0" cy="225.0" r="4.0" fill="#b07adf"/>
  <circle cx="315.0" cy="225.0" r="4.0" fill="#b07adf"/>
  <circle cx="325.0" cy="225.0" r="4.0" fill="#b07adf"/>
  <circle cx="335.0" cy="225.0" r="4.0" fill="#b07adf"/>
  <circle cx="385.0" cy="225.0" r="4.0" fill="#b07adf"/>
  <circle cx="395.0" cy="225.0" r="4.0" fill="#b07adf"/>
  <circle cx="405.0" cy="225.0" r="4.0" fill="#b07adf"/>
  <circle cx="85.0" cy="235.0" r="4.0" fill="#b07adf"/>
  <circle cx="115.0" cy="235.0" r="4.0" fill="#b07adf"/>
  <circle cx="125.0" cy="235.0" r="4.0" fill="#b07adf"/>
  <circle cx="135.0" cy="235.0" r="4.0" fill="#b07adf"/>
  <circle cx="175.0" cy="235.0" r="4.0" fill="#b07adf"/>
  <circle cx="195.0" cy="235.0" r="4.0" fill="#b07adf"/>
  <circle cx="205.0" cy="235.0" r="4.0" fill="#b07adf"/>
  <circle cx="215.0" cy="235.0" r="4.0" fill="#b07adf"/>
  <circle cx="225.0" cy="235.0" r="4.0" fill="#b07adf"/>
  <circle cx="235.0" cy="235.0" r="4.0" fill="#b07adf"/>
  <circle cx="245.0" cy="235.0" r="4.0" fill="#b07adf"/>
  <circle cx="255.0" cy="235.0" r="4.0" fill="#b07adf"/>
  <circle cx="275.0" cy="235.0" r="4.0" fill="#b07adf"/>
  <circle cx="285.0" cy="235.0" r="4.0" fill="#b07adf"/>
  <circle cx="325.0" cy="235.0" r="4.0" fill="#b07adf"/>
  <circle cx="335.0" cy="235.0" r="4.0" fill="#b07adf"/>
  <circle cx="355.0" cy="235.0" r="4.0" fill="#b07adf"/>
  <circle cx="405.0" cy="235.0" r="4.0" fill="#b07adf"/>
  <circle cx="65.0" cy="245.0" r="4.0" fill="#b07adf"/>
  <circle cx="105.0" cy="245.0" r="4.0" fill="#b07adf"/>
  <circle cx="145.0" cy="245.0" r="4.0" fill="#b07adf"/>
  <circle cx="155.0" cy="245.0" r="4.0" fill="#b07adf"/>
  <circle cx="165.0" cy="245.0" r="4.0" fill="#b07adf"/>
  <circle cx="195.0" cy="245.0" r="4.0" fill="#b07adf"/>
  <circle cx="215.0" cy="245.0" r="4.0" fill="#b07adf"/>
  <circle cx="245.0" cy="245.0" r="4.0" fill="#b07adf"/>
  <circle cx="265.0" cy="245.0" r="4.0" fill="#b07adf"/>
  <circle cx="285.0" cy="245.0" r="4.0" fill="#b07adf"/>
  <circle cx="295.0" cy="245.0" r="4.0" fill="#b07adf"/>
  <circle cx="305.0" cy="245.0" r="4.0" fill="#b07adf"/>
  <circle cx="315.0" cy="245.0" r="4.0" fill="#b07adf"/>
  <circle cx="335.0" cy="245.0" r="4.0" fill="#b07adf"/>
  <circle cx="345.0" cy="245.0" r="4.0" fill="#b07adf"/>
  <circle cx="355.0" cy="245.0" r="4.0" fill="#b07adf"/>
  <circle cx="365.0" cy="245.0" r="4.0" fill="#b07adf"/>
  <circle cx="375.0" cy="245.0" r="4.0" fill="#b07adf"/>
  <circle cx="385.0" cy="245.0" r="4.0" fill="#b07adf"/>
  <circle cx="395.0" cy="245.0" r="4.0" fill="#b07adf"/>
  <circle cx="405.0" cy="245.0" r="4.0" fill="#b07adf"/>
  <circle cx="45.0" cy="255.0" r="4.0" fill="#b07adf"/>
  <circle cx="55.0" cy="255.0" r="4.0" fill="#b07adf"/>
  <circle cx="65.0" cy="255.0" r="4.0" fill="#b07adf"/>
  <circle cx="135.0" cy="255.0" r="4.0" fill="#b07adf"/>
  <circle cx="145.0" cy="255.0" r="4.0" fill="#b07adf"/>
  <circle cx="155.0" cy="255.0" r="4.0" fill="#b07adf"/>
  <circle cx="175.0" cy="255.0" r="4.0" fill="#b07adf"/>
  <circle cx="195.0" cy="255.0" r="4.0" fill="#b07adf"/>
  <circle cx="215.0" cy="255.0" r="4.0" fill="#b07adf"/>
  <circle cx="235.0" cy="255.0" r="4.0" fill="#b07adf"/>
  <circle cx="245.0" cy="255.0" r="4.0" fill="#b07adf"/>
  <circle cx="265.0" cy="255.0" r="4.0" fill="#b07adf"/>
  <circle cx="275.0" cy="255.0" r="4.0" fill="#b07adf"/>
  <circle cx="295.0" cy="255.0" r="4.0" fill="#b07adf"/>
  <circle cx="335.0" cy="255.0" r="4.0" fill="#b07adf"/>
  <circle cx="355.0" cy="255.0" r="4.0" fill="#b07adf"/>
  <circle cx="375.0" cy="255.0" r="4.0" fill="#b07adf"/>
  <circle cx="395.0" cy="255.0" r="4.0" fill="#b07adf"/>
  <circle cx="45.0" cy="265.0" r="4.0" fill="#b07adf"/>
  <circle cx="75.0" cy="265.0" r="4.0" fill="#b07adf"/>
  <circle cx="85.0" cy="265.0" r="4.0" fill="#b07adf"/>
  <circle cx="95.0" cy="265.0" r="4.0" fill="#b07adf"/>
  <circle cx="105.0" cy="265.0" r="4.0" fill="#b07adf"/>
  <circle cx="135.0" cy="265.0" r="4.0" fill="#b07adf"/>
  <circle cx="145.0" cy="265.0" r="4.0" fill="#b07adf"/>
  <circle cx="165.0" cy="265.0" r="4.0" fill="#b07adf"/>
  <circle cx="175.0" cy="265.0" r="4.0" fill="#b07adf"/>
  <circle cx="195.0" cy="265.0" r="4.0" fill="#b07adf"/>
  <circle cx="255.0" cy="265.0" r="4.0" fill="#b07adf"/>
  <circle cx="275.0" cy="265.0" r="4.0" fill="#b07adf"/>
  <circle cx="295.0" cy="265.0" r="4.0" fill="#b07adf"/>
  <circle cx="305.0" cy="265.0" r="4.0" fill="#b07adf"/>
  <circle cx="315.0" cy="265.0" r="4.0" fill="#b07adf"/>
  <circle cx="335.0" cy="265.0" r="4.0" fill="#b07adf"/>
  <circle cx="385.0" cy="265.0" r="4.0" fill="#b07adf"/>
  <circle cx="395.0" cy="265.0" r="4.0" fill="#b07adf"/>
  <circle cx="405.0" cy="265.0" r="4.0" fill="#b07adf"/>
  <circle cx="55.0" cy="275.0" r="4.0" fill="#b07adf"/>
  <circle cx="115.0" cy="275.0" r="4.0" fill="#b07adf"/>
  <circle cx="135.0" cy="275.0" r="4.0" fill="#b07adf"/>
  <circle cx="155.0" cy="275.0" r="4.0" fill="#b07adf"/>
  <circle cx="215.0" cy="275.0" r="4.0" fill="#b07adf"/>
  <circle cx="225.0" cy="275.0" r="4.0" fill="#b07adf"/>
  <circle cx="255.0" cy="275.0" r="4.0" fill="#b07adf"/>
  <circle cx="285.0" cy="275.0" r="4.0" fill="#b07adf"/>
  <circle cx="295.0" cy="275.0" r="4.0" fill="#b07adf"/>
  <circle cx="355.0" cy="275.0" r="4.0" fill="#b07adf"/>
  <circle cx="395.0" cy="275.0" r="4.0" fill="#b07adf"/>
  <circle cx="405.0" cy="275.0" r="4.0" fill="#b07adf"/>
  <circle cx="65.0" cy="285.0" r="4.0" fill="#b07adf"/>
  <circle cx="105.0" cy="285.0" r="4.0" fill="#b07adf"/>
  <circle cx="125.0" cy="285.0" r="4.0" fill="#b07adf"/>
  <circle cx="135.0" cy="285.0" r="4.0" fill="#b07adf"/>
  <circle cx="175.0" cy="285.0" r="4.0" fill="#b07adf"/>
  <circle cx="185.0" cy="285.0" r="4.0" fill="#b07adf"/>
  <circle cx="195.0" cy="285.0" r="4.0" fill="#b07adf"/>
  <circle cx="205.0" cy="285.0" r="4.0" fill="#b07adf"/>
  <circle cx="235.0" cy="285.0" r="4.0" fill="#b07adf"/>
  <circle cx="245.0" cy="285.0" r="4.0" fill="#b07adf"/>
  <circle cx="255.0" cy="285.0" r="4.0" fill="#b07adf"/>
  <circle cx="275.0" cy="285.0" r="4.0" fill="#b07adf"/>
  <circle cx="285.0" cy="285.0" r="4.0" fill="#b07adf"/>
  <circle cx="305.0" cy="285.0" r="4.0" fill="#b07adf"/>
  <circle cx="325.0" cy="285.0" r="4.0" fill="#b07adf"/>
  <circle cx="335.0" cy="285.0" r="4.0" fill="#b07adf"/>
  <circle cx="375.0" cy="285.0" r="4.0" fill="#b07adf"/>
  <circle cx="385.0" cy="285.0" r="4.0" fill="#b07adf"/>
  <circle cx="405.0" cy="285.0" r="4.0" fill="#b07adf"/>
  <circle cx="45.0" cy="295.0" r="4.0" fill="#b07adf"/>
  <circle cx="55.0" cy="295.0" r="4.0" fill="#b07adf"/>
  <circle cx="85.0" cy="295.0" r="4.0" fill="#b07adf"/>
  <circle cx="95.0" cy="295.0" r="4.0" fill="#b07adf"/>
  <circle cx="115.0" cy="295.0" r="4.0" fill="#b07adf"/>
  <circle cx="135.0" cy="295.0" r="4.0" fill="#b07adf"/>
  <circle cx="175.0" cy="295.0" r="4.0" fill="#b07adf"/>
  <circle cx="205.0" cy="295.0" r="4.0" fill="#b07adf"/>
  <circle cx="225.0" cy="295.0" r="4.0" fill="#b07adf"/>
  <circle cx="315.0" cy="295.0" r="4.0" fill="#b07adf"/>
  <circle cx="345.0" cy="295.0" r="4.0" fill="#b07adf"/>
  <circle cx="385.0" cy="295.0" r="4.0" fill="#b07adf"/>
  <circle cx="45.0" cy="305.0" r="4.0" fill="#b07adf"/>
  <circle cx="75.0" cy="305.0" r="4.0" fill="#b07adf"/>
  <circle cx="105.0" cy="305.0" r="4.0" fill="#b07adf"/>
  <circle cx="115.0" cy="305.0" r="4.0" fill="#b07adf"/>
  <circle cx="165.0" cy="305.0" r="4.0" fill="#b07adf"/>
  <circle cx="185.0" cy="305.0" r="4.0" fill="#b07adf"/>
  <circle cx="195.0" cy="305.0" r="4.0" fill="#b07adf"/>
  <circle cx="215.0" cy="305.0" r="4.0" fill="#b07adf"/>
  <circle cx="225.0" cy="305.0" r="4.0" fill="#b07adf"/>
  <circle cx="235.0" cy="305.0" r="4.0" fill="#b07adf"/>
  <circle cx="265.0" cy="305.0" r="4.0" fill="#b07adf"/>
  <circle cx="275.0" cy="305.0" r="4.0" fill="#b07adf"/>
  <circle cx="285.0" cy="305.0" r="4.0" fill="#b07adf"/>
  <circle cx="295.0" cy="305.0" r="4.0" fill="#b07adf"/>
  <circle cx="315.0" cy="305.0" r="4.0" fill="#b07adf"/>
  <circle cx="325.0" cy="305.0" r="4.0" fill="#b07adf"/>
  <circle cx="345.0" cy="305.0" r="4.0" fill="#b07adf"/>
  <circle cx="355.0" cy="305.0" r="4.0" fill="#b07adf"/>
  <circle cx="365.0" cy="305.0" r="4.0" fill="#b07adf"/>
  <circle cx="375.0" cy="305.0" r="4.0" fill="#b07adf"/>
  <circle cx="405.0" cy="305.0" r="4.0" fill="#b07adf"/>
  <circle cx="45.0" cy="315.0" r="4.0" fill="#b07adf"/>
  <circle cx="75.0" cy="315.0" r="4.0" fill="#b07adf"/>
  <circle cx="85.0" cy="315.0" r="4.0" fill="#b07adf"/>
  <circle cx="115.0" cy="315.0" r="4.0" fill="#b07adf"/>
  <circle cx="125.0" cy="315.0" r="4.0" fill="#b07adf"/>
  <circle cx="135.0" cy="315.0" r="4.0" fill="#b07adf"/>
  <circle cx="185.0" cy="315.0" r="4.0" fill="#b07adf"/>
  <circle cx="205.0" cy="315.0" r="4.0" fill="#b07adf"/>
  <circle cx="215.0" cy="315.0" r="4.0" fill="#b07adf"/>
  <circle cx="225.0" cy="315.0" r="4.0" fill="#b07adf"/>
  <circle cx="235.0" cy="315.0" r="4.0" fill="#b07adf"/>
  <circle cx="245.0" cy="315.0" r="4.0" fill="#b07adf"/>
  <circle cx="275.0" cy="315.0" r="4.0" fill="#b07adf"/>
  <circle cx="305.0" cy="315.0" r="4.0" fill="#b07adf"/>
  <circle cx="315.0" cy="315.0" r="4.0" fill="#b07adf"/>
  <circle cx="335.0" cy="315.0" r="4.0" fill="#b07adf"/>
  <circle cx="355.0" cy="315.0" r="4.0" fill="#b07adf"/>
  <circle cx="365.0" cy="315.0" r="4.0" fill="#b07adf"/>
  <circle cx="375.0" cy="315.0" r="4.0" fill="#b07adf"/>
  <circle cx="395.0" cy="315.0" r="4.0" fill="#b07adf"/>
  <circle cx="45.0" cy="325.0" r="4.0" fill="#b07adf"/>
  <circle cx="65.0" cy="325.0" r="4.0" fill="#b07adf"/>
  <circle cx="75.0" cy="325.0" r="4.0" fill="#b07adf"/>
  <circle cx="95.0" cy="325.0" r="4.0" fill="#b07adf"/>
  <circle cx="105.0" cy="325.0" r="4.0" fill="#b07adf"/>
  <circle cx="115.0" cy="325.0" r="4.0" fill="#b07adf"/>
  <circle cx="125.0" cy="325.0" r="4.0" fill="#b07adf"/>
  <circle cx="145.0" cy="325.0" r="4.0" fill="#b07adf"/>
  <circle cx="175.0" cy="325.0" r="4.0" fill="#b07adf"/>
  <circle cx="185.0" cy="325.0" r="4.0" fill="#b07adf"/>
  <circle cx="205.0" cy="325.0" r="4.0" fill="#b07adf"/>
  <circle cx="215.0" cy="325.0" r="4.0" fill="#b07adf"/>
  <circle cx="245.0" cy="325.0" r="4.0" fill="#b07adf"/>
  <circle cx="255.0" cy="325.0" r="4.0" fill="#b07adf"/>
  <circle cx="275.0" cy="325.0" r="4.0" fill="#b07adf"/>
  <circle cx="285.0" cy="325.0" r="4.0" fill="#b07adf"/>
  <circle cx="295.0" cy="325.0" r="4.0" fill="#b07adf"/>
  <circle cx="305.0" cy="325.0" r="4.0" fill="#b07adf"/>
  <circle cx="315.0" cy="325.0" r="4.0" fill="#b07adf"/>
  <circle cx="375.0" cy="325.0" r="4.0" fill="#b07adf"/>
  <circle cx="385.0" cy="325.0" r="4.0" fill="#b07adf"/>
  <circle cx="405.0" cy="325.0" r="4.0" fill="#b07adf"/>
  <circle cx="125.0" cy="335.0" r="4.0" fill="#b07adf"/>
  <circle cx="135.0" cy="335.0" r="4.0" fill="#b07adf"/>
  <circle cx="145.0" cy="335.0" r="4.0" fill="#b07adf"/>
  <circle cx="165.0" cy="335.0" r="4.0" fill="#b07adf"/>
  <circle cx="195.0" cy="335.0" r="4.0" fill="#b07adf"/>
  <circle cx="215.0" cy="335.0" r="4.0" fill="#b07adf"/>
  <circle cx="245.0" cy="335.0" r="4.0" fill="#b07adf"/>
  <circle cx="275.0" cy="335.0" r="4.0" fill="#b07adf"/>
  <circle cx="315.0" cy="335.0" r="4.0" fill="#b07adf"/>
  <circle cx="395.0" cy="335.0" r="4.0" fill="#b07adf"/>
  <circle cx="155.0" cy="345.0" r="4.0" fill="#b07adf"/>
  <circle cx="165.0" cy="345.0" r="4.0" fill="#b07adf"/>
  <circle cx="205.0" cy="345.0" r="4.0" fill="#b07adf"/>
  <circle cx="215.0" cy="345.0" r="4.0" fill="#b07adf"/>
  <circle cx="235.0" cy="345.0" r="4.0" fill="#b07adf"/>
  <circle cx="265.0" cy="345.0" r="4.0" fill="#b07adf"/>
  <circle cx="285.0" cy="345.0" r="4.0" fill="#b07adf"/>
  <circle cx="295.0" cy="345.0" r="4.0" fill="#b07adf"/>
  <circle cx="375.0" cy="345.0" r="4.0" fill="#b07adf"/>
  <circle cx="395.0" cy="345.0" r="4.0" fill="#b07adf"/>
  <circle cx="405.0" cy="345.0" r="4.0" fill="#b07adf"/>
  <circle cx="135.0" cy="355.0" r="4.0" fill="#b07adf"/>
  <circle cx="165.0" cy="355.0" r="4.0" fill="#b07adf"/>
  <circle cx="175.0" cy="355.0" r="4.0" fill="#b07adf"/>
  <circle cx="185.0" cy="355.0" r="4.0" fill="#b07adf"/>
  <circle cx="195.0" cy="355.0" r="4.0" fill="#b07adf"/>
  <circle cx="205.0" cy="355.0" r="4.0" fill="#b07adf"/>
  <circle cx="215.0" cy="355.0" r="4.0" fill="#b07adf"/>
  <circle cx="245.0" cy="355.0" r="4.0" fill="#b07adf"/>
  <circle cx="265.0" cy="355.0" r="4.0" fill="#b07adf"/>
  <circle cx="275.0" cy="355.0" r="4.0" fill="#b07adf"/>
  <circle cx="285.0" cy="355.0" r="4.0" fill="#b07adf"/>
  <circle cx="395.0" cy="355.0" r="4.0" fill="#b07adf"/>
  <circle cx="405.0" cy="355.0" r="4.0" fill="#b07adf"/>
  <circle cx="125.0" cy="365.0" r="4.0" fill="#b07adf"/>
  <circle cx="135.0" cy="365.0" r="4.0" fill="#b07adf"/>
  <circle cx="145.0" cy="365.0" r="4.0" fill="#b07adf"/>
  <circle cx="175.0" cy="365.0" r="4.0" fill="#b07adf"/>
  <circle cx="195.0" cy="365.0" r="4.0" fill="#b07adf"/>
  <circle cx="205.0" cy="365.0" r="4.0" fill="#b07adf"/>
  <circle cx="215.0" cy="365.0" r="4.0" fill="#b07adf"/>
  <circle cx="225.0" cy="365.0" r="4.0" fill="#b07adf"/>
  <circle cx="235.0" cy="365.0" r="4.0" fill="#b07adf"/>
  <circle cx="255.0" cy="365.0" r="4.0" fill="#b07adf"/>
  <circle cx="265.0" cy="365.0" r="4.0" fill="#b07adf"/>
  <circle cx="295.0" cy="365.0" r="4.0" fill="#b07adf"/>
  <circle cx="305.0" cy="365.0" r="4.0" fill="#b07adf"/>
  <circle cx="315.0" cy="365.0" r="4.0" fill="#b07adf"/>
  <circle cx="385.0" cy="365.0" r="4.0" fill="#b07adf"/>
  <circle cx="405.0" cy="365.0" r="4.0" fill="#b07adf"/>
  <circle cx="125.0" cy="375.0" r="4.0" fill="#b07adf"/>
  <circle cx="135.0" cy="375.0" r="4.0" fill="#b07adf"/>
  <circle cx="175.0" cy="375.0" r="4.0" fill="#b07adf"/>
  <circle cx="205.0" cy="375.0" r="4.0" fill="#b07adf"/>
  <circle cx="215.0" cy="375.0" r="4.0" fill="#b07adf"/>
  <circle cx="225.0" cy="375.0" r="4.0" fill="#b07adf"/>
  <circle cx="245.0" cy="375.0" r="4.0" fill="#b07adf"/>
  <circle cx="285.0" cy="375.0" r="4.0" fill="#b07adf"/>
  <circle cx="305.0" cy="375.0" r="4.0" fill="#b07adf"/>
  <circle cx="315.0" cy="375.0" r="4.0" fill="#b07adf"/>
  <circle cx="325.0" cy="375.0" r="4.0" fill="#b07adf"/>
  <circle cx="345.0" cy="375.0" r="4.0" fill="#b07adf"/>
  <circle cx="365.0" cy="375.0" r="4.0" fill="#b07adf"/>
  <circle cx="375.0" cy="375.0" r="4.0" fill="#b07adf"/>
  <circle cx="125.0" cy="385.0" r="4.0" fill="#b07adf"/>
  <circle cx="135.0" cy="385.0" r="4.0" fill="#b07adf"/>
  <circle cx="145.0" cy="385.0" r="4.0" fill="#b07adf"/>
  <circle cx="185.0" cy="385.0" r="4.0" fill="#b07adf"/>
  <circle cx="195.0" cy="385.0" r="4.0" fill="#b07adf"/>
  <circle cx="225.0" cy="385.0" r="4.0" fill="#b07adf"/>
  <circle cx="245.0" cy="385.0" r="4.0" fill="#b07adf"/>
  <circle cx="255.0" cy="385.0" r="4.0" fill="#b07adf"/>
  <circle cx="295.0" cy="385.0" r="4.0" fill="#b07adf"/>
  <circle cx="335.0" cy="385.0" r="4.0" fill="#b07adf"/>
  <circle cx="355.0" cy="385.0" r="4.0" fill="#b07adf"/>
  <circle cx="405.0" cy="385.0" r="4.0" fill="#b07adf"/>
  <circle cx="135.0" cy="395.0" r="4.0" fill="#b07adf"/>
  <circle cx="155.0" cy="395.0" r="4.0" fill="#b07adf"/>
  <circle cx="205.0" cy="395.0" r="4.0" fill="#b07adf"/>
  <circle cx="215.0" cy="395.0" r="4.0" fill="#b07adf"/>
  <circle cx="225.0" cy="395.0" r="4.0" fill="#b07adf"/>
  <circle cx="235.0" cy="395.0" r="4.0" fill="#b07adf"/>
  <circle cx="265.0" cy="395.0" r="4.0" fill="#b07adf"/>
  <circle cx="285.0" cy="395.0" r="4.0" fill="#b07adf"/>
  <circle cx="305.0" cy="395.0" r="4.0" fill="#b07adf"/>
  <circle cx="315.0" cy="395.0" r="4.0" fill="#b07adf"/>
  <circle cx="325.0" cy="395.0" r="4.0" fill="#b07adf"/>
  <circle cx="335.0" cy="395.0" r="4.0" fill="#b07adf"/>
  <circle cx="355.0" cy="395.0" r="4.0" fill="#b07adf"/>
  <circle cx="365.0" cy="395.0" r="4.0" fill="#b07adf"/>
  <circle cx="405.0" cy="395.0" r="4.0" fill="#b07adf"/>
  <circle cx="155.0" cy="405.0" r="4.0" fill="#b07adf"/>
  <circle cx="165.0" cy="405.0" r="4.0" fill="#b07adf"/>
  <circle cx="185.0" cy="405.0" r="4.0" fill="#b07adf"/>
  <circle cx="225.0" cy="405.0" r="4.0" fill="#b07adf"/>
  <circle cx="255.0" cy="405.0" r="4.0" fill="#b07adf"/>
  <circle cx="295.0" cy="405.0" r="4.0" fill="#b07adf"/>
  <circle cx="305.0" cy="405.0" r="4.0" fill="#b07adf"/>
  <circle cx="355.0" cy="405.0" r="4.0" fill="#b07adf"/>
  <circle cx="365.0" cy="405.0" r="4.0" fill="#b07adf"/>
  <circle cx="375.0" cy="405.0" r="4.0" fill="#b07adf"/>
  <circle cx="385.0" cy="405.0" r="4.0" fill="#b07adf"/>
  <circle cx="395.0" cy="405.0" r="4.0" fill="#b07adf"/>
  <circle cx="405.0" cy="405.0" r="4.0" fill="#b07adf"/>
  <rect x="40" y="40" width="70" height="70" rx="10.0" fill="#b07adf"/>
  <rect x="50" y="50" width="50" height="50" rx="6.0" fill="#120a24"/>
  <circle cx="75.0" cy="75.0" r="13.5" fill="#b07adf"/>
  <rect x="340" y="40" width="70" height="70" rx="10.0" fill="#b07adf"/>
  <rect x="350" y="50" width="50" height="50" rx="6.0" fill="#120a24"/>
  <circle cx="375.0" cy="75.0" r="13.5" fill="#b07adf"/>
  <rect x="40" y="340" width="70" height="70" rx="10.0" fill="#b07adf"/>
  <rect x="50" y="350" width="50" height="50" rx="6.0" fill="#120a24"/>
  <circle cx="75.0" cy="375.0" r="13.5" fill="#b07adf"/>
  <circle cx="345.0" cy="345.0" r="20.0" fill="#b07adf"/>
  <circle cx="345.0" cy="345.0" r="13.0" fill="#120a24"/>
  <circle cx="345.0" cy="345.0" r="6.5" fill="#b07adf"/>
</svg>